<?xml version="1.0" encoding="UTF-8" standalone="no"?><!DOCTYPE svg PUBLIC "-//W3C//DTD SVG 1.1//EN" "http://www.w3.org/Graphics/SVG/1.1/DTD/svg11.dtd"><svg width="100%" height="100%" viewBox="0 0 375 375" version="1.1" xmlns="http://www.w3.org/2000/svg" xmlns:xlink="http://www.w3.org/1999/xlink" xml:space="preserve" xmlns:serif="http://www.serif.com/" style="fill-rule:evenodd;clip-rule:evenodd;stroke-linejoin:round;stroke-miterlimit:2;"><path d="M187.5,46.875c77.613,-0 140.625,63.012 140.625,140.625c0,77.613 -63.012,140.625 -140.625,140.625c-77.613,0 -140.625,-63.012 -140.625,-140.625c-0,-77.613 63.012,-140.625 140.625,-140.625Zm0,70.312c38.807,0 70.313,31.506 70.313,70.313c-0,38.807 -31.506,70.313 -70.313,70.313c-38.807,-0 -70.313,-31.506 -70.313,-70.313c0,-38.807 31.506,-70.313 70.313,-70.313Z" style="fill:#3ecf65;"/><path d="M187.5,117.188l0,-70.313l140.625,-0l0,140.625l-70.312,0c-0,-38.807 -31.506,-70.312 -70.313,-70.312Z" style="fill:#3ecf65;"/></svg>