<?xml version="1.0" encoding="UTF-8" standalone="no"?><!DOCTYPE svg PUBLIC "-//W3C//DTD SVG 1.1//EN" "http://www.w3.org/Graphics/SVG/1.1/DTD/svg11.dtd"><svg width="100%" height="100%" viewBox="0 0 375 375" version="1.1" xmlns="http://www.w3.org/2000/svg" xmlns:xlink="http://www.w3.org/1999/xlink" xml:space="preserve" xmlns:serif="http://www.serif.com/" style="fill-rule:evenodd;clip-rule:evenodd;stroke-linejoin:round;stroke-miterlimit:2;"><path d="M375,18.75c-0,-10.348 -8.402,-18.75 -18.75,-18.75l-337.5,0c-10.348,0 -18.75,8.402 -18.75,18.75l-0,337.5c-0,10.348 8.402,18.75 18.75,18.75l337.5,0c10.348,0 18.75,-8.402 18.75,-18.75l-0,-337.5Z" style="fill:#1b1b1b;"/><path d="M187.5,75c62.09,-0 112.5,50.41 112.5,112.5c0,62.09 -50.41,112.5 -112.5,112.5c-62.09,0 -112.5,-50.41 -112.5,-112.5c-0,-62.09 50.41,-112.5 112.5,-112.5Zm0,56.25c31.045,-0 56.25,25.205 56.25,56.25c0,31.045 -25.205,56.25 -56.25,56.25c-31.045,0 -56.25,-25.205 -56.25,-56.25c-0,-31.045 25.205,-56.25 56.25,-56.25Z" style="fill:#3ecf65;"/><path d="M187.5,131.25l0,-56.25l112.5,-0l0,112.5l-56.25,0c0,-31.045 -25.205,-56.25 -56.25,-56.25Z" style="fill:#3ecf65;"/></svg>